<?xml version="1.0" encoding="UTF-8" standalone="no"?>
<!-- Created with Inkscape (http://www.inkscape.org/) -->

<svg
   xmlns:dc="http://purl.org/dc/elements/1.1/"
   xmlns:cc="http://creativecommons.org/ns#"
   xmlns:rdf="http://www.w3.org/1999/02/22-rdf-syntax-ns#"
   xmlns:svg="http://www.w3.org/2000/svg"
   xmlns="http://www.w3.org/2000/svg"
   xmlns:sodipodi="http://sodipodi.sourceforge.net/DTD/sodipodi-0.dtd"
   xmlns:inkscape="http://www.inkscape.org/namespaces/inkscape"
   id="svg2"
   version="1.1"
   inkscape:version="0.47 r22583"
   width="80"
   height="80"
   xml:space="preserve"
   sodipodi:docname="blacktocats.svg"><metadata
     id="metadata8"><rdf:RDF><cc:Work
         rdf:about=""><dc:format>image/svg+xml</dc:format><dc:type
           rdf:resource="http://purl.org/dc/dcmitype/StillImage" /><dc:title /></cc:Work></rdf:RDF></metadata><defs
     id="defs6"><inkscape:perspective
       sodipodi:type="inkscape:persp3d"
       inkscape:vp_x="0 : 40 : 1"
       inkscape:vp_y="0 : 1000 : 0"
       inkscape:vp_z="80 : 40 : 1"
       inkscape:persp3d-origin="40 : 26.666667 : 1"
       id="perspective9" /></defs><sodipodi:namedview
     pagecolor="#ffffff"
     bordercolor="#666666"
     borderopacity="1"
     objecttolerance="10"
     gridtolerance="10"
     guidetolerance="10"
     inkscape:pageopacity="0"
     inkscape:pageshadow="2"
     inkscape:window-width="640"
     inkscape:window-height="480"
     id="namedview4"
     showgrid="false"
     inkscape:zoom="4.8252127"
     inkscape:cx="18.941657"
     inkscape:cy="18.217039"
     inkscape:current-layer="g12" /><g
     id="g12"
     inkscape:groupmode="layer"
     inkscape:label="blacktocats"
     transform="matrix(1.25,0,0,-1.25,0,80)"
     style="display:inline"><path
       id="path24"
       style="fill:#231f20;fill-opacity:1;fill-rule:nonzero;stroke:none"
       d="m 33.9766,44.0049 c 2.734,0.977 4.734,3.5 4.734,6.516 0,3.718 -3.015,6.734 -6.726,6.734 -3.719,0 -6.735,-3.016 -6.735,-6.734 0,-3.047 2.032,-5.586 4.813,-6.516 l 0,1.281 c 0,0.766 0.32,1.172 0.641,1.391 -1.735,0.18 -3.594,0.805 -3.594,3.805 0,0.843 0.297,1.531 0.789,2.062 -0.078,0.203 -0.336,0.984 0.078,2.039 0,0 0.648,0.211 2.117,-0.789 0.61,0.172 1.274,0.258 1.922,0.258 0.656,0 1.313,-0.086 1.93,-0.258 1.469,1 2.109,0.789 2.109,0.789 0.422,-1.055 0.156,-1.836 0.078,-2.039 0.492,-0.531 0.789,-1.219 0.789,-2.062 0,-3 -1.859,-3.625 -3.593,-3.805 0.32,-0.219 0.648,-0.625 0.648,-1.391 l 0,-1.281 z m 5.984,6.516 c 0,-4.407 -3.57,-8.016 -7.976,-8.016 -4.414,0 -7.985,3.609 -7.985,8.016 0,4.414 3.571,7.984 7.985,7.984 4.406,0 7.976,-3.57 7.976,-7.984" /><path
       id="path28"
       style="fill:#231f20;fill-opacity:1;fill-rule:nonzero;stroke:none"
       d="m 36,8.5801 c 5.5,1.813 9.484,6.938 9.484,13 0,7.453 -6.046,13.5 -13.5,13.5 -7.437,0 -13.484,-6.047 -13.484,-13.5 0,-6.062 4,-11.203 9.516,-13 l 0,2.547 c -3.938,-0.891 -4.766,1.844 -4.766,1.844 -0.625,1.609 -1.531,2.031 -1.531,2.031 -1.266,0.859 0.093,0.844 0.093,0.844 1.391,-0.094 2.125,-1.422 2.125,-1.422 1.313,-2.25 3.485,-1.438 4.157,-1.11 0.203,0.985 0.969,1.188 1.219,1.266 -3.547,0.375 -7.344,1.656 -7.344,7.797 0,1.719 0.609,3.125 1.609,4.219 -0.156,0.406 -0.703,2 0.156,4.172 0,0 1.328,0.421 4.329,-1.61 1.25,0.344 2.593,0.516 3.937,0.531 1.328,-0.015 2.672,-0.187 3.938,-0.531 3,2.031 4.312,1.61 4.312,1.61 0.859,-2.172 0.328,-3.766 0.156,-4.172 1.016,-1.094 1.625,-2.5 1.625,-4.219 0,-6.141 -3.797,-7.406 -7.343,-7.781 0.64,-0.438 1.312,-1.266 1.312,-2.844 l 0,-3.172 z m 11.984,13 c 0,-8.844 -7.156,-16 -16,-16 -8.828,0 -15.984,7.156 -15.984,16 0,8.828 7.156,16 15.984,16 8.844,0 16,-7.172 16,-16" /></g></svg>