<?xml version="1.0" encoding="UTF-8" standalone="no"?>
<!-- Created with Inkscape (http://www.inkscape.org/) -->

<svg
   xmlns:dc="http://purl.org/dc/elements/1.1/"
   xmlns:cc="http://creativecommons.org/ns#"
   xmlns:rdf="http://www.w3.org/1999/02/22-rdf-syntax-ns#"
   xmlns:svg="http://www.w3.org/2000/svg"
   xmlns="http://www.w3.org/2000/svg"
   xmlns:sodipodi="http://sodipodi.sourceforge.net/DTD/sodipodi-0.dtd"
   xmlns:inkscape="http://www.inkscape.org/namespaces/inkscape"
   id="svg2"
   version="1.1"
   inkscape:version="0.47 r22583"
   width="270"
   height="270"
   xml:space="preserve"
   sodipodi:docname="octocat.svg"><metadata
     id="metadata8"><rdf:RDF><cc:Work
         rdf:about=""><dc:format>image/svg+xml</dc:format><dc:type
           rdf:resource="http://purl.org/dc/dcmitype/StillImage" /><dc:title /></cc:Work></rdf:RDF></metadata><defs
     id="defs6" /><sodipodi:namedview
     pagecolor="#ffffff"
     bordercolor="#666666"
     borderopacity="1"
     objecttolerance="10"
     gridtolerance="10"
     guidetolerance="10"
     inkscape:pageopacity="0"
     inkscape:pageshadow="2"
     inkscape:window-width="640"
     inkscape:window-height="480"
     id="namedview4"
     showgrid="false"
     inkscape:zoom="1.0333706"
     inkscape:cx="57.861285"
     inkscape:cy="97.756561"
     inkscape:current-layer="g12" /><g
     id="g12"
     inkscape:groupmode="layer"
     inkscape:label="octocat"
     transform="matrix(1.25,0,0,-1.25,0,270)"
     style="display:inline"><path
       id="path24"
       style="fill:#a5e2f4;fill-opacity:1;fill-rule:nonzero;stroke:none"
       d="m 158.542,54.9961 c 0,-9.73 -22.538,-17.617 -50.339,-17.617 -27.803,0 -50.34,7.887 -50.34,17.617 0,9.73 22.537,17.619 50.34,17.619 27.801,0 50.339,-7.889 50.339,-17.619" /><path
       id="path36"
       style="fill:#87c0ea;fill-opacity:1;fill-rule:nonzero;stroke:none"
       d="m 158.542,54.9961 c 0,-9.73 -22.538,-17.617 -50.339,-17.617 -27.803,0 -50.34,7.887 -50.34,17.617 0,9.73 22.537,17.619 50.34,17.619 27.801,0 50.339,-7.889 50.339,-17.619" /><path
       id="path48"
       style="fill:#a5e2f4;fill-opacity:1;fill-rule:nonzero;stroke:none"
       d="m 50.6987,106.8008 -1.453,-5.063 c 0,0 -0.378,-1.83 1.346,-2.154 1.8,0.035 1.653,1.719 1.527,2.266 l -1.42,4.951 z" /><path
       id="path52"
       style="fill:#110f0d;fill-opacity:1;fill-rule:nonzero;stroke:none"
       d="m 197.042,128.0273 0.133,0.658 c -14.768,2.953 -29.922,2.983 -39.09,2.602 1.506,5.426 1.959,11.67 1.959,18.633 0,9.986 -3.752,17.975 -9.843,24.054 1.065,3.435 2.487,11.066 -1.42,20.833 0,0 -6.89,2.188 -22.476,-8.243 -6.106,1.526 -12.604,2.279 -19.112,2.279 -7.16,0 -14.395,-0.912 -21.143,-2.763 -16.086,10.975 -23.186,8.727 -23.186,8.727 -4.636,-11.59 -1.77,-20.171 -0.899,-22.302 -5.448,-5.879 -8.774,-13.384 -8.774,-22.585 0,-6.947 0.792,-13.178 2.724,-18.594 -9.247,0.336 -23.849,0.207 -38.089,-2.641 l 0.132,-0.658 c 14.325,2.865 29.018,2.965 38.209,2.617 0.425,-1.121 0.899,-2.209 1.43,-3.26 -9.088,-0.293 -24.604,-1.451 -39.475,-5.646 l 0.182,-0.645 c 14.988,4.227 30.641,5.356 39.641,5.631 5.43,-10.121 16.135,-16.658 35.18,-18.711 -2.704,-1.816 -5.46,-4.904 -6.579,-10.129 -3.683,-1.761 -15.343,-6.062 -22.339,5.971 0,0 -3.916,7.16 -11.412,7.721 0,0 -7.271,0.111 -0.503,-4.531 0,0 4.867,-2.293 8.223,-10.909 0,0 4.379,-14.695 25.512,-9.98 l 0,-15.18 c 0,0 -0.447,-5.369 -5.369,-7.158 0,0 -2.908,-2.014 0.224,-3.131 0,0 13.645,-1.119 13.645,10.065 l 0,16.552 c 0,0 -0.54,6.565 2.683,8.846 l 0,-27.187 c 0,0 -0.222,-6.487 -3.578,-8.948 0,0 -2.237,-4.025 2.684,-2.908 0,0 9.394,1.342 9.842,12.303 l 0.214,27.513 2.257,0 0.215,-27.513 c 0.447,-10.961 9.842,-12.303 9.842,-12.303 4.919,-1.117 2.683,2.908 2.683,2.908 -3.355,2.461 -3.578,8.948 -3.578,8.948 l 0,26.953 c 3.223,-2.51 2.684,-8.612 2.684,-8.612 l 0,-16.552 c 0,-11.184 13.644,-10.065 13.644,-10.065 3.131,1.117 0.225,3.131 0.225,3.131 -4.922,1.789 -5.369,7.158 -5.369,7.158 l 0,21.697 c 0,8.461 -3.563,12.942 -7.047,15.307 20.31,2.014 30.056,8.572 34.548,18.762 8.896,-0.244 24.906,-1.328 40.22,-5.649 l 0.182,0.645 c -15.227,4.295 -31.131,5.406 -40.117,5.668 0.426,1.029 0.797,2.1 1.127,3.201 9.105,0.389 24.328,0.385 39.154,-2.58" /><path
       id="path56"
       style="fill:#f5c6aa;fill-opacity:1;fill-rule:nonzero;stroke:none"
       d="m 140.1777,150.3906 c 4.375,-3.963 6.934,-8.749 6.934,-13.905 0,-24.075 -17.948,-24.728 -40.085,-24.728 -22.14,0 -40.086,3.334 -40.086,24.728 0,5.122 2.524,9.878 6.845,13.825 7.206,6.578 19.404,3.095 33.241,3.095 13.782,0 25.934,3.518 33.151,-3.015" /><path
       id="path60"
       style="fill:#ffffff;fill-opacity:1;fill-rule:nonzero;stroke:none"
       d="m 93.6968,135.2578 c 0,-6.631 -3.734,-12.006 -8.34,-12.006 -4.606,0 -8.342,5.375 -8.342,12.006 0,6.631 3.736,12.004 8.342,12.004 4.606,0 8.34,-5.373 8.34,-12.004" /><path
       id="path64"
       style="fill:#ad4a48;fill-opacity:1;fill-rule:nonzero;stroke:none"
       d="m 91.021,135.1074 c 0,-4.42 -2.491,-8.002 -5.561,-8.002 -3.072,0 -5.56,3.582 -5.56,8.002 0,4.422 2.488,8.006 5.56,8.006 3.07,0 5.561,-3.584 5.561,-8.006" /><path
       id="path68"
       style="fill:#ffffff;fill-opacity:1;fill-rule:nonzero;stroke:none"
       d="m 138.4434,135.2578 c 0,-6.631 -3.734,-12.006 -8.342,-12.006 -4.605,0 -8.34,5.375 -8.34,12.006 0,6.631 3.735,12.004 8.34,12.004 4.608,0 8.342,-5.373 8.342,-12.004" /><path
       id="path72"
       style="fill:#ad4a48;fill-opacity:1;fill-rule:nonzero;stroke:none"
       d="m 135.7656,135.1074 c 0,-4.42 -2.49,-8.002 -5.561,-8.002 -3.07,0 -5.56,3.582 -5.56,8.002 0,4.422 2.49,8.006 5.56,8.006 3.071,0 5.561,-3.584 5.561,-8.006" /><path
       id="path76"
       style="fill:#ad4a48;fill-opacity:1;fill-rule:nonzero;stroke:none"
       d="m 109.2305,124.5957 c 0,-1.152 -0.934,-2.086 -2.086,-2.086 -1.153,0 -2.086,0.934 -2.086,2.086 0,1.152 0.933,2.086 2.086,2.086 1.152,0 2.086,-0.934 2.086,-2.086" /><path
       id="path80"
       style="fill:#ad4a48;fill-opacity:1;fill-rule:nonzero;stroke:none"
       d="m 102.2847,119.3223 c -0.123,0.35 0.061,0.732 0.409,0.855 0.349,0.124 0.733,-0.06 0.856,-0.408 0.536,-1.515 1.973,-2.533 3.577,-2.533 1.604,0 3.041,1.018 3.578,2.533 0.123,0.35 0.506,0.532 0.856,0.408 0.349,-0.123 0.531,-0.505 0.408,-0.855 -0.725,-2.049 -2.672,-3.426 -4.842,-3.426 -2.17,0 -4.115,1.377 -4.842,3.426" /><path
       id="path84"
       style="fill:#c5ead4;fill-opacity:1;fill-rule:nonzero;stroke:none"
       d="m 56.0405,109.7852 c 0,-0.557 -0.652,-1.006 -1.455,-1.006 -0.803,0 -1.454,0.449 -1.454,1.006 0,0.557 0.651,1.008 1.454,1.008 0.803,0 1.455,-0.451 1.455,-1.008" /><path
       id="path88"
       style="fill:#c5ead4;fill-opacity:1;fill-rule:nonzero;stroke:none"
       d="m 60.0679,107.5488 c 0,-0.557 -0.652,-1.008 -1.455,-1.008 -0.803,0 -1.454,0.451 -1.454,1.008 0,0.555 0.651,1.006 1.454,1.006 0.803,0 1.455,-0.451 1.455,-1.006" /><path
       id="path92"
       style="fill:#c5ead4;fill-opacity:1;fill-rule:nonzero;stroke:none"
       d="m 62.5288,104.6387 c 0,-0.555 -0.651,-1.006 -1.455,-1.006 -0.803,0 -1.453,0.451 -1.453,1.006 0,0.557 0.65,1.008 1.453,1.008 0.804,0 1.455,-0.451 1.455,-1.008" /><path
       id="path96"
       style="fill:#c5ead4;fill-opacity:1;fill-rule:nonzero;stroke:none"
       d="m 64.7651,101.2832 c 0,-0.557 -0.65,-1.008 -1.453,-1.008 -0.804,0 -1.455,0.451 -1.455,1.008 0,0.557 0.651,1.008 1.455,1.008 0.803,0 1.453,-0.451 1.453,-1.008" /><path
       id="path100"
       style="fill:#c5ead4;fill-opacity:1;fill-rule:nonzero;stroke:none"
       d="m 67.2271,98.1504 c 0,-0.555 -0.651,-1.006 -1.454,-1.006 -0.803,0 -1.455,0.451 -1.455,1.006 0,0.557 0.652,1.008 1.455,1.008 0.803,0 1.454,-0.451 1.454,-1.008" /><path
       id="path104"
       style="fill:#c5ead4;fill-opacity:1;fill-rule:nonzero;stroke:none"
       d="m 70.5835,95.4668 c 0,-0.557 -0.651,-1.008 -1.455,-1.008 -0.803,0 -1.453,0.451 -1.453,1.008 0,0.555 0.65,1.006 1.453,1.006 0.804,0 1.455,-0.451 1.455,-1.006" /><path
       id="path108"
       style="fill:#c5ead4;fill-opacity:1;fill-rule:nonzero;stroke:none"
       d="m 75.2817,93.6758 c 0,-0.555 -0.651,-1.006 -1.454,-1.006 -0.804,0 -1.455,0.451 -1.455,1.006 0,0.557 0.651,1.008 1.455,1.008 0.803,0 1.454,-0.451 1.454,-1.008" /><path
       id="path112"
       style="fill:#c5ead4;fill-opacity:1;fill-rule:nonzero;stroke:none"
       d="m 79.9575,93.6758 c 0,-0.555 -0.651,-1.006 -1.454,-1.006 -0.804,0 -1.455,0.451 -1.455,1.006 0,0.557 0.651,1.008 1.455,1.008 0.803,0 1.454,-0.451 1.454,-1.008" /><path
       id="path116"
       style="fill:#c5ead4;fill-opacity:1;fill-rule:nonzero;stroke:none"
       d="m 84.7036,94.4551 c 0,-0.557 -0.651,-1.008 -1.454,-1.008 -0.804,0 -1.455,0.451 -1.455,1.008 0,0.557 0.651,1.008 1.455,1.008 0.803,0 1.454,-0.451 1.454,-1.008" /></g></svg>