<?xml version="1.0" encoding="UTF-8" standalone="no"?>
<!-- Created with Inkscape (http://www.inkscape.org/) -->

<svg
   xmlns:dc="http://purl.org/dc/elements/1.1/"
   xmlns:cc="http://creativecommons.org/ns#"
   xmlns:rdf="http://www.w3.org/1999/02/22-rdf-syntax-ns#"
   xmlns:svg="http://www.w3.org/2000/svg"
   xmlns="http://www.w3.org/2000/svg"
   xmlns:sodipodi="http://sodipodi.sourceforge.net/DTD/sodipodi-0.dtd"
   xmlns:inkscape="http://www.inkscape.org/namespaces/inkscape"
   id="svg2"
   version="1.1"
   inkscape:version="0.47 r22583"
   width="1000"
   height="750"
   xml:space="preserve"
   sodipodi:docname="github_logo_social_coding_outlined.svg"><metadata
     id="metadata8"><rdf:RDF><cc:Work
         rdf:about=""><dc:format>image/svg+xml</dc:format><dc:type
           rdf:resource="http://purl.org/dc/dcmitype/StillImage" /><dc:title /></cc:Work></rdf:RDF></metadata><defs
     id="defs6" /><sodipodi:namedview
     pagecolor="#ffffff"
     bordercolor="#666666"
     borderopacity="1"
     objecttolerance="10"
     gridtolerance="10"
     guidetolerance="10"
     inkscape:pageopacity="0"
     inkscape:pageshadow="2"
     inkscape:window-width="640"
     inkscape:window-height="480"
     id="namedview4"
     showgrid="false"
     inkscape:zoom="0.39410872"
     inkscape:cx="505.33151"
     inkscape:cy="514.12219"
     inkscape:current-layer="g12" /><g
     id="g12"
     inkscape:groupmode="layer"
     inkscape:label="github_logo_social_coding_outlined"
     transform="matrix(1.25,0,0,-1.25,0,750)"
     style="display:inline"><g
       id="g22"
       transform="translate(239.5605,309.2017)" /><g
       id="g26"
       transform="translate(282.3696,337.0776)" /><g
       id="g30"
       transform="translate(275.7217,276.1943)" /><g
       id="g34"
       transform="translate(313.0356,327.98)" /><g
       id="g38"
       transform="translate(354.0039,328.3301)" /><g
       id="g42"
       transform="translate(395.2974,275.7275)" /><path
       d="m 446.0381,316.083 c -2.566,0 -5.249,-1.283 -8.048,-3.849 l 0,-20.177 c 2.488,-2.411 4.938,-3.617 7.348,-3.617 3.032,0 5.326,1.672 6.882,5.016 1.244,2.644 1.866,5.793 1.866,9.447 0,8.787 -2.683,13.18 -8.048,13.18 m 1.749,-40.238 c -4.198,0 -7.697,1.515 -10.497,4.548 l 0,-4.199 -12.363,0 c 0.233,1.322 0.35,3.772 0.35,7.348 l 0,61.7 c 0,4.588 -0.117,7.503 -0.35,8.747 l 13.297,0 c -0.157,-1.399 -0.234,-4.315 -0.234,-8.747 l 0,-20.295 c 3.576,2.255 7.076,3.383 10.497,3.383 6.143,0 10.964,-2.722 14.463,-8.164 2.954,-4.744 4.432,-10.498 4.432,-17.263 0,-6.92 -1.555,-12.946 -4.665,-18.078 -3.733,-5.987 -8.709,-8.98 -14.93,-8.98 m -52.4897,-0.1175 c -6.143,0 -10.691,2.722 -13.646,8.165 -2.333,4.432 -3.5,10.225 -3.5,17.378 l 0,15.979 c 0,5.288 -0.155,8.864 -0.466,10.73 l 13.996,0 c -0.233,-1.71 -0.388,-5.365 -0.467,-10.963 l -0.116,-15.746 c 0,-4.432 0.506,-7.62 1.516,-9.564 1.167,-2.411 3.305,-3.616 6.415,-3.616 2.178,0 4.627,1.283 7.349,3.849 l 0,28.692 c 0,1.323 -0.079,2.839 -0.234,4.549 -0.156,1.711 -0.233,2.644 -0.233,2.799 l 13.529,0 c -0.155,-1.321 -0.233,-3.771 -0.233,-7.348 l 0,-35.69 c 0,-4.587 0.078,-7.503 0.233,-8.747 l -12.713,0 0,4.198 c -3.577,-3.109 -7.387,-4.665 -11.43,-4.665 m -41.2935,52.6026 c -3.343,0 -6.842,-1.167 -10.497,-3.499 l 0,20.411 c 0,4.432 0.078,7.348 0.233,8.747 l -13.296,0 c 0.233,-1.244 0.35,-4.159 0.35,-8.747 l 0,-61.7 c 0,-3.576 -0.117,-6.026 -0.35,-7.348 l 13.53,0 c 0,0.234 -0.078,1.186 -0.234,2.858 -0.155,1.672 -0.233,3.169 -0.233,4.49 l 0,28.692 c 2.722,2.566 5.365,3.849 7.931,3.849 2.955,0 5.21,-1.477 6.765,-4.432 1.166,-2.333 1.75,-5.249 1.75,-8.748 l -0.117,-15.745 c 0,-2.644 -0.194,-6.299 -0.583,-10.964 l 14.112,0 c -0.31,1.944 -0.466,5.521 -0.466,10.731 l 0,15.978 c 0,6.765 -1.516,12.519 -4.549,17.262 -3.421,5.443 -8.203,8.165 -14.346,8.165 m -40.9683,-0.3501 10.147,0 0,-11.313 c -0.389,0 -1.108,0.038 -2.158,0.116 -1.05,0.078 -2.041,0.117 -2.974,0.117 l -5.015,0 0,-21.694 c 0,-5.21 1.71,-7.814 5.132,-7.814 2.41,0 4.587,0.66 6.532,1.982 l 0,-11.663 c -2.877,-1.556 -6.338,-2.333 -10.381,-2.333 -5.677,0 -9.603,2.021 -11.78,6.064 -1.633,3.034 -2.45,7.815 -2.45,14.347 l 0,20.878 0.117,0 0,0.233 -1.75,0.116 c -1.01,0 -2.332,-0.116 -3.965,-0.349 l 0,11.313 5.715,0 0,4.549 c 0,2.177 -0.117,3.927 -0.35,5.248 l 13.53,0 c -0.233,-1.477 -0.35,-3.149 -0.35,-5.015 l 0,-4.782 z m -37.3139,-51.7857 c 0.155,1.555 0.233,4.198 0.233,7.931 l 0,36.274 c 0,3.654 -0.078,6.181 -0.233,7.581 l 13.18,0 c -0.156,-1.478 -0.234,-3.927 -0.234,-7.348 l 0,-35.807 c 0,-3.966 0.078,-6.843 0.234,-8.631 l -13.18,0 z m 6.6479,60.8833 c -2.255,0 -4.179,0.855 -5.773,2.566 -1.594,1.71 -2.392,3.732 -2.392,6.065 0,2.411 0.798,4.471 2.392,6.182 1.594,1.71 3.518,2.565 5.773,2.565 2.177,0 4.063,-0.855 5.657,-2.565 1.594,-1.711 2.391,-3.771 2.391,-6.182 0,-2.333 -0.797,-4.355 -2.391,-6.065 -1.594,-1.711 -3.48,-2.566 -5.657,-2.566 m -42.8091,-27.8759 c 0,-5.365 2.449,-8.048 7.348,-8.048 4.743,0 7.114,2.722 7.114,8.165 0,2.255 -0.544,4.198 -1.632,5.832 -1.322,1.788 -3.149,2.682 -5.482,2.682 -4.899,0 -7.348,-2.877 -7.348,-8.631 m 17.961,-44.788 c 0,3.966 -3.265,5.949 -9.797,5.949 -6.298,0 -9.447,-2.061 -9.447,-6.182 0,-4.043 3.421,-6.064 10.263,-6.064 5.988,0 8.981,2.098 8.981,6.297 m -0.466,61.35 c 3.732,0 8.047,0.933 12.946,2.799 l 0,-12.013 c -1.088,-0.389 -2.643,-0.816 -4.665,-1.283 0.622,-1.788 0.933,-3.46 0.933,-5.015 0,-4.977 -1.497,-9.311 -4.49,-13.005 -2.994,-3.693 -6.863,-5.89 -11.606,-6.589 -3.11,-0.467 -4.665,-2.139 -4.665,-5.016 0,-1.011 0.506,-2.022 1.516,-3.032 1.322,-1.478 3.266,-2.411 5.832,-2.8 11.12,-1.71 16.679,-6.337 16.679,-13.879 0,-12.053 -7.193,-18.079 -21.578,-18.079 -5.909,0 -10.769,1.05 -14.579,3.149 -4.821,2.644 -7.231,6.804 -7.231,12.481 0,6.531 3.616,11.002 10.847,13.412 l 0,0.233 c -2.644,1.633 -3.966,4.121 -3.966,7.465 0,4.355 1.244,7.076 3.733,8.164 l 0,0.234 c -2.489,0.855 -4.705,2.799 -6.649,5.832 -2.177,3.265 -3.265,6.764 -3.265,10.497 0,5.598 1.983,10.263 5.948,13.996 3.81,3.499 8.359,5.248 13.646,5.248 3.81,0 7.348,-0.933 10.614,-2.799"
       style="fill:#000000;fill-opacity:1;fill-rule:evenodd;stroke:none"
       id="path48" /><path
       id="path104"
       style="opacity:0.80000299;fill:#000000;fill-opacity:1;fill-rule:nonzero;stroke:none"
       d="m 466.6816,260.0723 0,-0.502 c 0,-5.629 -2.881,-10.624 -9.064,-10.624 -5.815,0 -9.489,4.915 -9.489,10.412 0,5.683 3.78,10.571 9.726,10.571 3.383,0 6.343,-1.717 7.876,-4.756 l -3.436,-1.85 c -0.793,1.797 -2.484,3.171 -4.546,3.171 -3.753,0 -5.602,-3.832 -5.602,-7.136 0,-3.303 1.876,-6.976 5.629,-6.976 2.431,0 4.467,2.114 4.546,4.519 l -4.229,0 0,3.171 8.589,0 z m -37.6572,9.8574 2.802,0 10.492,-13.928 0.053,0 0,13.4 3.884,0 0,-20.324 -2.8,0 -10.493,13.928 -0.052,0 0,-13.531 -3.886,0 0,20.455 z m -2.8254,-20.4547 -3.886,0 0,19.927 3.886,0 0,-19.927 z m -17.0691,3.3824 0.634,0 c 4.783,0 6.634,2.643 6.634,6.581 0,4.334 -2.22,6.58 -6.634,6.58 l -0.634,0 0,-13.161 z m -3.886,16.544 5.551,0 c 5.761,0 9.619,-4.308 9.619,-9.989 0,-5.604 -3.964,-9.938 -9.646,-9.938 l -5.524,0 0,19.927 z m -11.7566,-3.3037 c -3.674,0 -5.841,-3.25 -5.841,-6.475 0,-3.065 1.533,-6.844 5.841,-6.844 4.308,0 5.841,3.779 5.841,6.844 0,3.225 -2.168,6.475 -5.841,6.475 m 0,-17.151 c -6.079,0 -9.858,4.651 -9.858,10.518 0,5.92 3.912,10.465 9.858,10.465 5.946,0 9.857,-4.545 9.857,-10.465 0,-5.867 -3.779,-10.518 -9.857,-10.518 m -11.4668,15.1695 c -1.083,1.321 -2.722,2.114 -4.387,2.114 -3.727,0 -5.867,-3.435 -5.867,-6.872 0,-3.356 2.22,-6.712 5.84,-6.712 1.665,0 3.331,0.872 4.414,2.114 l 0,-4.624 c -1.454,-0.688 -2.907,-1.19 -4.52,-1.19 -5.602,0 -9.751,4.836 -9.751,10.333 0,5.656 3.99,10.65 9.831,10.65 1.559,0 3.092,-0.422 4.44,-1.162 l 0,-4.651 z m -27.6934,-11.2588 5.497,0 0,-3.383 -9.382,0 0,19.927 3.885,0 0,-16.544 z m -14.3208,11.2324 -0.053,0 -2.194,-7.242 4.731,0 -2.484,7.242 z m -3.356,-10.413 -1.639,-4.202 -4.096,0 7.77,20.455 3.012,0 7.559,-20.455 -4.149,0 -1.533,4.202 -6.924,0 z m -6.8973,-4.2018 -3.885,0 0,19.927 3.885,0 0,-19.927 z m -6.4454,14.6412 c -1.083,1.321 -2.722,2.114 -4.387,2.114 -3.727,0 -5.867,-3.435 -5.867,-6.872 0,-3.356 2.22,-6.712 5.84,-6.712 1.665,0 3.331,0.872 4.414,2.114 l 0,-4.624 c -1.454,-0.688 -2.907,-1.19 -4.52,-1.19 -5.602,0 -9.751,4.836 -9.751,10.333 0,5.656 3.99,10.65 9.831,10.65 1.559,0 3.092,-0.422 4.44,-1.162 l 0,-4.651 z m -25.0766,1.9815 c -3.673,0 -5.841,-3.25 -5.841,-6.475 0,-3.065 1.533,-6.844 5.841,-6.844 4.308,0 5.84,3.779 5.84,6.844 0,3.225 -2.167,6.475 -5.84,6.475 m 0,-17.151 c -6.079,0 -9.858,4.651 -9.858,10.518 0,5.92 3.912,10.465 9.858,10.465 5.946,0 9.858,-4.545 9.858,-10.465 0,-5.867 -3.779,-10.518 -9.858,-10.518 m -13.4229,16.0679 c -0.74,1.004 -1.691,1.639 -2.986,1.639 -1.243,0 -2.431,-0.952 -2.431,-2.247 0,-3.357 7.901,-1.955 7.901,-8.642 0,-3.991 -2.484,-6.818 -6.554,-6.818 -2.748,0 -4.757,1.585 -6.131,3.884 l 2.511,2.458 c 0.528,-1.533 1.929,-2.907 3.594,-2.907 1.585,0 2.563,1.348 2.563,2.881 0,2.062 -1.903,2.643 -3.462,3.25 -2.564,1.058 -4.44,2.353 -4.44,5.444 0,3.304 2.458,5.973 5.814,5.973 1.771,0 4.229,-0.872 5.445,-2.22 l -1.824,-2.695 z" /></g></svg>